<svg xmlns="http://www.w3.org/2000/svg" viewBox="0 0 96 96">
<defs>
  <linearGradient id="sk" x1="20%" y1="0%" x2="80%" y2="100%">
    <stop offset="0%" stop-color="#58A030"/><stop offset="45%" stop-color="#3A7820"/><stop offset="100%" stop-color="#1E4010"/>
  </linearGradient>
  <linearGradient id="lt" x1="15%" y1="0%" x2="85%" y2="100%">
    <stop offset="0%" stop-color="#5A3C1A"/><stop offset="50%" stop-color="#3C2810"/><stop offset="100%" stop-color="#1E1208"/>
  </linearGradient>
  <linearGradient id="hm" x1="15%" y1="0%" x2="85%" y2="100%">
    <stop offset="0%" stop-color="#6A4A22"/><stop offset="50%" stop-color="#4A3018"/><stop offset="100%" stop-color="#2A1808"/>
  </linearGradient>
  <linearGradient id="cb" x1="0%" y1="0%" x2="0%" y2="100%">
    <stop offset="0%" stop-color="#8A6030"/><stop offset="100%" stop-color="#4A3010"/>
  </linearGradient>
  <linearGradient id="sh" x1="15%" y1="0%" x2="85%" y2="100%">
    <stop offset="0%" stop-color="#7A5A28"/><stop offset="50%" stop-color="#5A4018"/><stop offset="100%" stop-color="#2A1C08"/>
  </linearGradient>
  <radialGradient id="ey" cx="40%" cy="35%">
    <stop offset="0%" stop-color="#FFE040"/><stop offset="50%" stop-color="#E0A000"/><stop offset="100%" stop-color="#804000"/>
  </radialGradient>
</defs>

<ellipse cx="48" cy="93" rx="22" ry="4" fill="#000" opacity="0.38"/>

<!-- CLUB weapon (left hand) -->
<rect x="6" y="18" width="8" height="52" rx="3" fill="url(#cb)"/>
<rect x="7.5" y="20" width="3" height="48" rx="1.5" fill="#A07840" opacity="0.4"/>
<!-- Club head knobbed -->
<ellipse cx="10" cy="18" rx="13" ry="14" fill="#7A5820"/>
<ellipse cx="10" cy="18" rx="10" ry="11" fill="#5A4018"/>
<ellipse cx="10" cy="18" rx="7" ry="8" fill="#4A3010"/>
<!-- Club spikes -->
<circle cx="4" cy="10" r="3" fill="#B08040"/>
<circle cx="16" cy="10" r="3" fill="#B08040"/>
<circle cx="2" cy="22" r="2.5" fill="#B08040"/>
<circle cx="18" cy="22" r="2.5" fill="#B08040"/>
<circle cx="5" cy="30" r="2" fill="#B08040"/>

<!-- SMALL WOODEN SHIELD (right arm) -->
<ellipse cx="82" cy="54" rx="11" ry="12" fill="url(#sh)"/>
<ellipse cx="82" cy="54" rx="8" ry="9" fill="#4A3010"/>
<ellipse cx="82" cy="54" rx="5" ry="6" fill="#6A4A20"/>
<circle cx="82" cy="54" r="3" fill="#A08030"/>
<circle cx="82" cy="54" r="1.8" fill="#C09840"/>
<!-- Shield scratch marks -->
<path d="M76,48 L78,56" stroke="#3A2008" stroke-width="1.5" opacity="0.6"/>
<path d="M80,46 L86,52" stroke="#3A2008" stroke-width="1.5" opacity="0.6"/>

<!-- CRUDE BOOTS -->
<rect x="25" y="80" width="16" height="12" rx="3" fill="#3A2210"/>
<rect x="55" y="80" width="16" height="12" rx="3" fill="#3A2210"/>
<rect x="26" y="81" width="7" height="2" rx="1" fill="#5A3820" opacity="0.5"/>
<rect x="56" y="81" width="7" height="2" rx="1" fill="#5A3820" opacity="0.5"/>

<!-- BOWED LEGS -->
<rect x="26" y="60" width="16" height="22" rx="5" fill="url(#sk)"/>
<rect x="54" y="60" width="16" height="22" rx="5" fill="url(#sk)"/>
<rect x="27" y="62" width="5" height="17" rx="3" fill="#68B840" opacity="0.3"/>
<rect x="55" y="62" width="5" height="17" rx="3" fill="#68B840" opacity="0.3"/>

<!-- BELT wide studded -->
<rect x="22" y="57" width="52" height="7" rx="2" fill="url(#lt)"/>
<rect x="40" y="56" width="16" height="9" rx="2" fill="#4A2E10"/>
<rect x="41" y="57" width="14" height="7" rx="1.5" fill="#3A2208"/>
<!-- Belt studs -->
<circle cx="28" cy="61" r="2.2" fill="#8A6828"/>
<circle cx="36" cy="61" r="2.2" fill="#8A6828"/>
<circle cx="60" cy="61" r="2.2" fill="#8A6828"/>
<circle cx="68" cy="61" r="2.2" fill="#8A6828"/>

<!-- TORSO ragged leather armor -->
<path d="M22,32 C20,34 19,42 19,58 L77,58 C77,42 76,34 74,32 Z" fill="url(#sk)"/>
<!-- Leather chest patch -->
<path d="M26,35 L34,42 L62,42 L70,35 Z" fill="url(#lt)"/>
<path d="M34,42 L36,36 L60,36 L62,42 Z" fill="#4A3018" opacity="0.6"/>
<!-- Armor stitching -->
<rect x="46" y="36" width="4" height="20" rx="2" fill="#3A2010" opacity="0.5"/>
<rect x="28" y="38" width="2.5" height="14" rx="1" fill="#3A2010" opacity="0.4"/>
<rect x="65.5" y="38" width="2.5" height="14" rx="1" fill="#3A2010" opacity="0.4"/>
<!-- Worn patches -->
<rect x="30" y="44" width="9" height="8" rx="2" fill="#3A2808"/>
<rect x="57" y="46" width="8" height="7" rx="2" fill="#302010"/>

<!-- ARMS green with bracers -->
<rect x="8" y="30" width="18" height="26" rx="7" fill="url(#sk)"/>
<rect x="70" y="30" width="18" height="26" rx="7" fill="url(#sk)"/>
<rect x="8" y="36" width="3" height="18" rx="1.5" fill="#68B840" opacity="0.3"/>
<!-- Leather bracers -->
<rect x="6" y="48" width="20" height="8" rx="3" fill="url(#lt)"/>
<rect x="68" y="48" width="20" height="8" rx="3" fill="url(#lt)"/>

<!-- BIG POINTED EARS -->
<path d="M22,30 Q4,18 6,34 Q8,44 22,38 Z" fill="url(#sk)"/>
<path d="M22,30 Q8,22 10,34" stroke="#4A8822" stroke-width="1.5" fill="none"/>
<path d="M74,30 Q92,18 90,34 Q88,44 74,38 Z" fill="url(#sk)"/>
<path d="M74,30 Q88,22 86,34" stroke="#4A8822" stroke-width="1.5" fill="none"/>

<!-- NECK short thick -->
<rect x="40" y="24" width="16" height="10" rx="4" fill="url(#sk)"/>

<!-- CRUDE HELMET -->
<rect x="26" y="6" width="44" height="14" rx="5" fill="url(#hm)"/>
<rect x="26" y="6" width="44" height="5" rx="4" fill="#7A5A2E" opacity="0.45"/>
<rect x="26" y="6" width="10" height="14" rx="4" fill="#7A5A2E" opacity="0.25"/>
<!-- Helmet rivets -->
<circle cx="32" cy="12" r="2" fill="#A07828"/>
<circle cx="48" cy="8" r="2" fill="#A07828"/>
<circle cx="64" cy="12" r="2" fill="#A07828"/>
<!-- Helmet nasal guard -->
<rect x="44" y="16" width="8" height="6" rx="2" fill="url(#hm)"/>

<!-- HEAD big round forehead -->
<ellipse cx="48" cy="20" rx="21" ry="18" fill="url(#sk)"/>
<ellipse cx="38" cy="14" rx="10" ry="9" fill="#68B840" opacity="0.25"/>

<!-- BROW ridge beady mean -->
<rect x="30" y="20" width="14" height="4" rx="2" fill="#2E5018" transform="rotate(-8,37,22)"/>
<rect x="52" y="20" width="14" height="4" rx="2" fill="#2E5018" transform="rotate(8,59,22)"/>

<!-- BEADY YELLOW EYES -->
<ellipse cx="37" cy="26" rx="8" ry="7" fill="#0A0800"/>
<ellipse cx="37" cy="26" rx="6" ry="5.5" fill="#C09000"/>
<ellipse cx="37" cy="26" rx="4" ry="3.8" fill="url(#ey)"/>
<circle cx="37" cy="26" r="2.2" fill="#FFD840"/>
<circle cx="37" cy="26" r="1.2" fill="#0A0800"/>
<rect x="36.4" y="23.5" width="1.2" height="5" rx="0.6" fill="#0A0800"/>
<circle cx="35.8" cy="24.5" r="0.9" fill="white" opacity="0.7"/>

<ellipse cx="59" cy="26" rx="8" ry="7" fill="#0A0800"/>
<ellipse cx="59" cy="26" rx="6" ry="5.5" fill="#C09000"/>
<ellipse cx="59" cy="26" rx="4" ry="3.8" fill="url(#ey)"/>
<circle cx="59" cy="26" r="2.2" fill="#FFD840"/>
<circle cx="59" cy="26" r="1.2" fill="#0A0800"/>
<rect x="58.4" y="23.5" width="1.2" height="5" rx="0.6" fill="#0A0800"/>
<circle cx="57.8" cy="24.5" r="0.9" fill="white" opacity="0.7"/>

<!-- WIDE FLAT NOSE -->
<ellipse cx="48" cy="32" rx="6" ry="4.5" fill="#2E5A18"/>
<circle cx="44.5" cy="34" r="1.8" fill="#224410"/>
<circle cx="51.5" cy="34" r="1.8" fill="#224410"/>

<!-- JAGGED GRIN with tusk -->
<path d="M32,37 Q48,46 64,37" fill="#1E3C10"/>
<path d="M33,38 Q48,44 63,38" stroke="#1A3010" stroke-width="1.5" fill="none"/>
<rect x="36" y="38" width="3" height="5" rx="1" fill="#D0C8A0"/>
<rect x="41" y="39" width="3" height="4" rx="1" fill="#C8C098"/>
<rect x="47" y="38" width="5" height="7" rx="1.5" fill="#E8E0B8"/>
<rect x="53" y="39" width="3" height="4" rx="1" fill="#C8C098"/>
<rect x="58" y="38" width="3" height="5" rx="1" fill="#D0C8A0"/>
<!-- Wart on nose -->
<circle cx="54" cy="30" r="2" fill="#2E5818" opacity="0.8"/>
</svg>
