<svg xmlns="http://www.w3.org/2000/svg" viewBox="0 0 96 96">
<defs>
  <radialGradient id="vd" cx="50%" cy="50%">
    <stop offset="0%" stop-color="#4A0090"/><stop offset="50%" stop-color="#200050"/><stop offset="100%" stop-color="#060010"/>
  </radialGradient>
  <linearGradient id="tn" x1="15%" y1="0%" x2="85%" y2="100%">
    <stop offset="0%" stop-color="#5A0098"/><stop offset="45%" stop-color="#380060"/><stop offset="100%" stop-color="#140020"/>
  </linearGradient>
  <radialGradient id="e1" cx="40%" cy="35%">
    <stop offset="0%" stop-color="#FF40FF"/><stop offset="50%" stop-color="#A000C0"/><stop offset="100%" stop-color="#200030"/>
  </radialGradient>
  <radialGradient id="e2" cx="40%" cy="35%">
    <stop offset="0%" stop-color="#40FFFF"/><stop offset="50%" stop-color="#0080A0"/><stop offset="100%" stop-color="#001020"/>
  </radialGradient>
  <radialGradient id="e3" cx="40%" cy="35%">
    <stop offset="0%" stop-color="#FF8000"/><stop offset="50%" stop-color="#A04000"/><stop offset="100%" stop-color="#200000"/>
  </radialGradient>
  <radialGradient id="au" cx="50%" cy="50%">
    <stop offset="0%" stop-color="#8000FF" stop-opacity="0.5"/><stop offset="50%" stop-color="#400080" stop-opacity="0.3"/><stop offset="100%" stop-color="#100020" stop-opacity="0"/>
  </radialGradient>
</defs>

<!-- Void ambient glow deep purple -->
<circle cx="48" cy="48" r="48" fill="#200050" opacity="0.25"/>
<circle cx="48" cy="48" r="32" fill="#380090" opacity="0.12"/>
<!-- Ground shadow void shimmer -->
<ellipse cx="48" cy="93" rx="26" ry="5" fill="#100020" opacity="0.7"/>
<!-- Outer aura rings -->
<circle cx="48" cy="40" r="44" fill="url(#au)"/>
<circle cx="48" cy="40" r="36" stroke="#6000C0" stroke-width="1.5" fill="none" opacity="0.35"/>
<circle cx="48" cy="40" r="28" stroke="#8000E0" stroke-width="1" fill="none" opacity="0.25"/>

<!-- TENTACLES (background, spreading wide) -->
<!-- Far left tentacle -->
<path d="M18,58 C-4,52 -8,38 -2,28 C4,20 12,26 14,38 C16,48 14,58 18,58" fill="url(#tn)"/>
<path d="M18,58 C2,50 0,36 4,28 C8,22 12,26 14,38" stroke="#7000C0" stroke-width="1.5" fill="none" opacity="0.4"/>
<!-- Left tentacle -->
<path d="M22,62 C6,56 0,40 4,26 C8,14 16,22 16,38 C16,50 18,62 22,62" fill="url(#tn)"/>
<!-- Inner left -->
<path d="M28,68 C12,64 6,46 12,32 C16,22 22,30 22,46 C22,58 26,68 28,68" fill="url(#tn)"/>
<!-- Right tentacles mirror -->
<path d="M78,58 C100,52 104,38 98,28 C92,20 84,26 82,38 C80,48 82,58 78,58" fill="url(#tn)"/>
<path d="M78,58 C94,50 96,36 92,28 C88,22 84,26 82,38" stroke="#7000C0" stroke-width="1.5" fill="none" opacity="0.4"/>
<path d="M74,62 C90,56 96,40 92,26 C88,14 80,22 80,38 C80,50 78,62 74,62" fill="url(#tn)"/>
<path d="M68,68 C84,64 90,46 84,32 C80,22 74,30 74,46 C74,58 70,68 68,68" fill="url(#tn)"/>

<!-- LOWER TENTACLES cascading down -->
<path d="M32,82 C24,88 18,96 22,96 C26,96 30,90 34,84" fill="url(#tn)"/>
<path d="M40,86 C36,92 34,96 38,96 C42,96 42,90 44,86" fill="url(#tn)"/>
<path d="M56,86 C60,92 62,96 58,96 C54,96 54,90 52,86" fill="url(#tn)"/>
<path d="M64,82 C72,88 78,96 74,96 C70,96 66,90 62,84" fill="url(#tn)"/>
<!-- Sucker dots on tentacles -->
<circle cx="15" cy="40" r="2" fill="#8000D0" opacity="0.6"/>
<circle cx="14" cy="50" r="1.5" fill="#8000D0" opacity="0.6"/>
<circle cx="82" cy="40" r="2" fill="#8000D0" opacity="0.6"/>
<circle cx="82" cy="50" r="1.5" fill="#8000D0" opacity="0.6"/>

<!-- BODY central mass -->
<ellipse cx="48" cy="52" rx="32" ry="28" fill="url(#vd)"/>
<ellipse cx="48" cy="52" rx="28" ry="24" fill="#300068" opacity="0.5"/>
<!-- Body void cracks/veins -->
<path d="M28,44 C32,48 36,56 30,62" stroke="#C040FF" stroke-width="1.5" fill="none" opacity="0.5"/>
<path d="M68,44 C64,48 60,56 66,62" stroke="#C040FF" stroke-width="1.5" fill="none" opacity="0.5"/>
<path d="M40,38 C42,46 44,58 38,66" stroke="#8000C0" stroke-width="1" fill="none" opacity="0.4"/>
<path d="M56,38 C54,46 52,58 58,66" stroke="#8000C0" stroke-width="1" fill="none" opacity="0.4"/>
<!-- Rune markings on body -->
<path d="M36,48 L34,56 L42,52 Z" stroke="#C060FF" stroke-width="1.2" fill="none" opacity="0.6"/>
<path d="M60,48 L62,56 L54,52 Z" stroke="#C060FF" stroke-width="1.2" fill="none" opacity="0.6"/>
<circle cx="48" cy="60" r="5" stroke="#A040FF" stroke-width="1.2" fill="none" opacity="0.5"/>

<!-- HEAD large floating orb of darkness -->
<ellipse cx="48" cy="20" rx="28" ry="24" fill="url(#vd)"/>
<ellipse cx="38" cy="12" rx="14" ry="12" fill="#5A00A0" opacity="0.25"/>
<ellipse cx="60" cy="24" rx="12" ry="14" fill="#1A0040" opacity="0.3"/>

<!-- MAIN EYE (center top, large) -->
<ellipse cx="48" cy="12" rx="14" ry="11" fill="#0A0018"/>
<ellipse cx="48" cy="12" rx="11" ry="8.5" fill="#200040"/>
<ellipse cx="48" cy="12" rx="8" ry="6.5" fill="url(#e1)"/>
<ellipse cx="48" cy="12" rx="5" ry="4" fill="#E000E0"/>
<circle cx="48" cy="12" r="2.5" fill="#FF80FF"/>
<circle cx="48" cy="12" r="1.2" fill="white"/>
<circle cx="46" cy="10" r="1.3" fill="white" opacity="0.95"/>
<!-- Main eye glow -->
<ellipse cx="48" cy="12" rx="16" ry="13" fill="#C000C0" opacity="0.18"/>

<!-- LEFT SECONDARY EYE -->
<ellipse cx="28" cy="22" rx="10" ry="8" fill="#080014"/>
<ellipse cx="28" cy="22" rx="7.5" ry="6" fill="#100028"/>
<ellipse cx="28" cy="22" rx="5.5" ry="4.5" fill="url(#e2)"/>
<circle cx="28" cy="22" r="2.8" fill="#00D0D0"/>
<circle cx="28" cy="22" r="1.4" fill="#80FFFF"/>
<circle cx="26.5" cy="20.5" r="1" fill="white" opacity="0.9"/>
<ellipse cx="28" cy="22" rx="12" ry="9" fill="#00A0A0" opacity="0.15"/>

<!-- RIGHT SECONDARY EYE -->
<ellipse cx="68" cy="22" rx="10" ry="8" fill="#080014"/>
<ellipse cx="68" cy="22" rx="7.5" ry="6" fill="#100028"/>
<ellipse cx="68" cy="22" rx="5.5" ry="4.5" fill="url(#e3)"/>
<circle cx="68" cy="22" r="2.8" fill="#FF8020"/>
<circle cx="68" cy="22" r="1.4" fill="#FFB060"/>
<circle cx="66.5" cy="20.5" r="1" fill="white" opacity="0.9"/>
<ellipse cx="68" cy="22" rx="12" ry="9" fill="#C06000" opacity="0.15"/>

<!-- SMALLER EYES scattered -->
<ellipse cx="36" cy="30" rx="6" ry="5" fill="#060012"/>
<ellipse cx="36" cy="30" rx="4" ry="3.5" fill="url(#e1)"/>
<circle cx="36" cy="30" r="1.8" fill="#D020D0"/>
<circle cx="35" cy="29" r="0.8" fill="white" opacity="0.85"/>

<ellipse cx="60" cy="30" rx="6" ry="5" fill="#060012"/>
<ellipse cx="60" cy="30" rx="4" ry="3.5" fill="url(#e2)"/>
<circle cx="60" cy="30" r="1.8" fill="#00B0C0"/>
<circle cx="59" cy="29" r="0.8" fill="white" opacity="0.85"/>

<ellipse cx="42" cy="34" rx="5" ry="4" fill="#060012"/>
<ellipse cx="42" cy="34" rx="3.5" ry="3" fill="url(#e3)"/>
<circle cx="42" cy="34" r="1.5" fill="#E06000"/>
<circle cx="41" cy="33" r="0.7" fill="white" opacity="0.8"/>

<ellipse cx="54" cy="34" rx="5" ry="4" fill="#060012"/>
<ellipse cx="54" cy="34" rx="3.5" ry="3" fill="url(#e1)"/>
<circle cx="54" cy="34" r="1.5" fill="#C020C0"/>
<circle cx="53" cy="33" r="0.7" fill="white" opacity="0.8"/>

<!-- MOUTH void tear (horizontal) -->
<path d="M30,38 Q48,44 66,38" fill="#040008"/>
<path d="M32,38 Q48,43 64,38" fill="#200040" opacity="0.5"/>
<!-- Void teeth (downward points) -->
<path d="M34,38 L32,43" stroke="#6000B0" stroke-width="1.5" fill="none"/>
<path d="M40,39 L38,44" stroke="#6000B0" stroke-width="1.5" fill="none"/>
<path d="M46,39 L46,45" stroke="#6000B0" stroke-width="1.5" fill="none"/>
<path d="M52,39 L52,44" stroke="#6000B0" stroke-width="1.5" fill="none"/>
<path d="M58,39 L60,44" stroke="#6000B0" stroke-width="1.5" fill="none"/>
<path d="M64,38 L66,43" stroke="#6000B0" stroke-width="1.5" fill="none"/>
<!-- Void glow from mouth -->
<path d="M30,38 Q48,44 66,38" fill="#8000FF" opacity="0.12"/>
</svg>
