<svg xmlns="http://www.w3.org/2000/svg" viewBox="0 0 96 96">
<defs>
  <linearGradient id="sk" x1="25%" y1="0%" x2="75%" y2="100%">
    <stop offset="0%" stop-color="#D89A58"/><stop offset="40%" stop-color="#B87040"/><stop offset="100%" stop-color="#7A3C18"/>
  </linearGradient>
  <linearGradient id="hr" x1="20%" y1="0%" x2="80%" y2="100%">
    <stop offset="0%" stop-color="#3A1E0C"/><stop offset="50%" stop-color="#1A0A04"/><stop offset="100%" stop-color="#070302"/>
  </linearGradient>
  <linearGradient id="tt" x1="20%" y1="0%" x2="80%" y2="100%">
    <stop offset="0%" stop-color="#2E2E2E"/><stop offset="50%" stop-color="#141414"/><stop offset="100%" stop-color="#060606"/>
  </linearGradient>
  <linearGradient id="jn" x1="15%" y1="0%" x2="85%" y2="100%">
    <stop offset="0%" stop-color="#2E4060"/><stop offset="50%" stop-color="#1C2B4E"/><stop offset="100%" stop-color="#0C1830"/>
  </linearGradient>
  <linearGradient id="bt" x1="20%" y1="0%" x2="80%" y2="100%">
    <stop offset="0%" stop-color="#1C1C1C"/><stop offset="100%" stop-color="#060606"/>
  </linearGradient>
  <linearGradient id="bl" x1="0%" y1="0%" x2="100%" y2="100%">
    <stop offset="0%" stop-color="#5A3818"/><stop offset="100%" stop-color="#2A1408"/>
  </linearGradient>
  <radialGradient id="eyeg" cx="40%" cy="35%">
    <stop offset="0%" stop-color="#6A2E0A"/><stop offset="100%" stop-color="#060402"/>
  </radialGradient>
</defs>

<ellipse cx="48" cy="93" rx="23" ry="4" fill="#000" opacity="0.35"/>

<!-- BOOTS -->
<rect x="23" y="81" width="19" height="11" rx="3" fill="url(#bt)"/>
<rect x="54" y="81" width="19" height="11" rx="3" fill="url(#bt)"/>
<rect x="25" y="82" width="9" height="2" rx="1" fill="#2C2C2C" opacity="0.55"/>
<rect x="56" y="82" width="9" height="2" rx="1" fill="#2C2C2C" opacity="0.55"/>

<!-- LEGS -->
<rect x="24" y="58" width="19" height="25" rx="4" fill="url(#jn)"/>
<rect x="53" y="58" width="19" height="25" rx="4" fill="url(#jn)"/>
<rect x="25" y="60" width="5" height="20" rx="2" fill="#3A506E" opacity="0.4"/>
<rect x="54" y="60" width="5" height="20" rx="2" fill="#3A506E" opacity="0.4"/>

<!-- BELT -->
<rect x="20" y="55" width="56" height="6" rx="2" fill="url(#bl)"/>
<rect x="43" y="54" width="10" height="8" rx="1" fill="#5A3C1A"/>
<rect x="44" y="55" width="8" height="6" rx="1" fill="#7A5228"/>

<!-- TORSO -->
<path d="M21,33 C19,35 18,42 18,58 L78,58 C78,42 77,35 75,33 Z" fill="url(#tt)"/>
<ellipse cx="37" cy="46" rx="10" ry="13" fill="#0A0A0A" opacity="0.3"/>
<ellipse cx="59" cy="46" rx="10" ry="13" fill="#0A0A0A" opacity="0.3"/>
<rect x="46" y="35" width="4" height="22" fill="#080808" opacity="0.25"/>
<path d="M37,33 Q48,38 59,33" stroke="#1E1E1E" stroke-width="2" fill="none"/>
<!-- Straps -->
<rect x="30" y="21" width="9" height="14" rx="4" fill="#1A1A1A"/>
<rect x="57" y="21" width="9" height="14" rx="4" fill="#1A1A1A"/>

<!-- RIGHT ARM (guard up) -->
<rect x="68" y="18" width="20" height="24" rx="8" fill="url(#sk)"/>
<rect x="68" y="18" width="7" height="24" rx="6" fill="#D09858" opacity="0.28"/>
<rect x="72" y="26" width="18" height="12" rx="5" fill="#9A4E28"/>
<rect x="73" y="28" width="14" height="2" rx="1" fill="#C07838" opacity="0.55"/>
<rect x="73" y="31" width="14" height="2" rx="1" fill="#C07838" opacity="0.55"/>
<rect x="73" y="34" width="14" height="2" rx="1" fill="#C07838" opacity="0.55"/>

<!-- LEFT ARM (low swing) -->
<rect x="8" y="30" width="20" height="24" rx="8" fill="url(#sk)"/>
<rect x="8" y="30" width="7" height="24" rx="6" fill="#D09858" opacity="0.28"/>
<rect x="4" y="52" width="18" height="12" rx="5" fill="#9A4E28"/>
<rect x="5" y="54" width="14" height="2" rx="1" fill="#C07838" opacity="0.55"/>
<rect x="5" y="57" width="14" height="2" rx="1" fill="#C07838" opacity="0.55"/>
<rect x="5" y="60" width="14" height="2" rx="1" fill="#C07838" opacity="0.55"/>

<!-- NECK -->
<rect x="40" y="21" width="16" height="14" rx="5" fill="url(#sk)"/>

<!-- HEAD -->
<ellipse cx="48" cy="13" rx="19" ry="17" fill="url(#sk)"/>
<ellipse cx="60" cy="16" rx="9" ry="11" fill="#8A3E18" opacity="0.18"/>
<ellipse cx="38" cy="10" rx="8" ry="7" fill="#D8A060" opacity="0.15"/>

<!-- HAIR -->
<path d="M29,10 C30,1 48,0 48,0 C48,0 66,1 67,10 C62,4 48,2 48,2 C48,2 34,4 29,10" fill="url(#hr)"/>
<ellipse cx="33" cy="9" rx="8" ry="8" fill="#1C0C06"/>
<ellipse cx="63" cy="9" rx="7" ry="7" fill="#1C0C06"/>
<ellipse cx="48" cy="2" rx="12" ry="6" fill="#2E1408" opacity="0.45"/>

<!-- BROW furrowed -->
<rect x="32" y="11" width="12" height="3.5" rx="1.5" fill="#0E0602" transform="rotate(-12,38,13)"/>
<rect x="52" y="11" width="12" height="3.5" rx="1.5" fill="#0E0602" transform="rotate(12,58,13)"/>

<!-- EYES -->
<ellipse cx="40" cy="17" rx="5.5" ry="5" fill="#0C0604"/>
<ellipse cx="40" cy="17" rx="3.8" ry="3.5" fill="#3A1808"/>
<circle cx="40" cy="17" r="2.4" fill="url(#eyeg)"/>
<circle cx="40" cy="17" r="1.4" fill="#040202"/>
<circle cx="38.8" cy="15.8" r="1.1" fill="white" opacity="0.75"/>

<ellipse cx="56" cy="17" rx="5.5" ry="5" fill="#0C0604"/>
<ellipse cx="56" cy="17" rx="3.8" ry="3.5" fill="#3A1808"/>
<circle cx="56" cy="17" r="2.4" fill="url(#eyeg)"/>
<circle cx="56" cy="17" r="1.4" fill="#040202"/>
<circle cx="54.8" cy="15.8" r="1.1" fill="white" opacity="0.75"/>

<!-- NOSE -->
<path d="M46,21 C46,24 50,24 50,21" stroke="#804020" stroke-width="1.4" fill="none"/>
<circle cx="45.5" cy="24.2" r="1.1" fill="#783A18" opacity="0.65"/>
<circle cx="50.5" cy="24.2" r="1.1" fill="#783A18" opacity="0.65"/>

<!-- MOUTH grim set -->
<path d="M40,28 C44,30 52,30 56,28" stroke="#6A1E08" stroke-width="2" fill="none"/>

<!-- STUBBLE -->
<rect x="37" y="24" width="22" height="8" rx="3" fill="#1A0A02" opacity="0.14"/>

<!-- BATTLE SCAR on cheek -->
<path d="M57,19 L61,24" stroke="#8A3A18" stroke-width="1.2" opacity="0.5"/>
</svg>
